<?xml version="1.0" standalone="no"?>
<!DOCTYPE svg PUBLIC "-//W3C//DTD SVG 20010904//EN"
 "http://www.w3.org/TR/2001/REC-SVG-20010904/DTD/svg10.dtd">
<svg version="1.0" xmlns="http://www.w3.org/2000/svg"
 width="1054.000000pt" height="1054.000000pt" viewBox="0 0 1054.000000 1054.000000"
 preserveAspectRatio="xMidYMid meet">

<g transform="translate(0.000000,1054.000000) scale(0.100000,-0.100000)"
fill="#000000" stroke="none">
<path d="M4262 8924 c-93 -25 -162 -69 -205 -132 -26 -37 -68 -154 -81 -222
-6 -32 -4 -30 23 20 121 227 430 251 885 69 83 -33 214 -94 290 -135 76 -41
143 -73 149 -71 15 5 -192 209 -263 259 -138 96 -304 173 -454 208 -97 24
-265 26 -344 4z m382 -44 c43 -12 106 -32 140 -46 76 -31 230 -116 275 -152
72 -57 192 -164 188 -168 -2 -2 -40 16 -85 41 -109 62 -312 149 -446 191 -160
50 -270 67 -396 61 -111 -5 -162 -19 -229 -61 -22 -15 -41 -22 -41 -17 0 5 21
31 48 59 48 52 109 86 197 109 71 18 249 10 349 -17z"/>
<path d="M6340 8873 c-323 -55 -626 -175 -795 -314 -49 -40 -103 -86 -120
-101 -16 -16 -41 -31 -55 -35 -14 -3 -29 -9 -35 -13 -5 -4 -50 -24 -100 -45
-49 -20 -146 -66 -215 -101 -116 -58 -133 -64 -240 -79 -156 -22 -298 -50
-465 -92 -77 -19 -158 -40 -180 -45 -38 -9 -50 -6 -200 62 -289 130 -485 197
-578 198 l-27 0 30 -37 c81 -95 229 -346 232 -393 3 -29 -2 -34 -57 -66 -33
-19 -85 -51 -115 -70 -30 -19 -60 -35 -67 -35 -6 0 -11 -4 -10 -7 1 -4 -52
-47 -118 -96 -206 -152 -366 -284 -489 -403 -49 -47 -86 -79 -83 -71 41 115
253 530 374 730 131 217 230 379 251 410 11 16 13 21 3 16 -16 -10 -182 -263
-295 -448 -43 -71 -83 -128 -89 -128 -58 0 -285 -46 -275 -55 2 -2 53 6 113
16 176 30 169 43 76 -133 -88 -170 -183 -375 -202 -439 -9 -28 -38 -69 -88
-123 -74 -81 -207 -242 -250 -304 -13 -18 -25 -31 -27 -29 -3 3 5 42 16 88 61
240 143 456 286 754 36 77 69 145 71 150 2 6 -3 1 -12 -10 -25 -30 -148 -277
-204 -411 -73 -175 -114 -300 -156 -477 -34 -144 -42 -164 -92 -244 -131 -206
-273 -516 -336 -738 -58 -199 -81 -348 -81 -510 1 -182 34 -300 114 -400 43
-54 130 -127 217 -182 65 -40 330 -162 384 -176 19 -5 12 -16 -66 -104 -338
-382 -572 -1022 -469 -1283 29 -74 78 -132 161 -192 153 -109 372 -201 563
-234 73 -12 134 -15 265 -11 153 4 181 8 280 36 131 38 193 70 306 156 207
159 277 198 434 240 97 26 260 35 320 18 89 -26 196 -85 246 -135 68 -68 84
-124 84 -295 0 -85 3 -126 9 -115 5 9 10 64 10 122 0 123 -17 190 -68 267 -19
28 -31 55 -27 59 3 4 0 4 -6 0 -15 -8 -85 42 -77 55 3 5 -1 6 -9 3 -7 -2 -36
6 -63 19 -133 66 -275 97 -476 104 -170 6 -284 -10 -340 -49 -14 -10 -29 -18
-33 -18 -8 0 -127 -79 -135 -90 -14 -18 -165 -99 -255 -136 -340 -139 -336
-138 -523 -131 -237 9 -273 19 -438 119 -154 92 -215 187 -222 346 -5 117 10
216 55 357 35 108 102 274 144 357 55 109 218 335 314 437 l66 70 44 -17 43
-16 -29 -54 c-16 -31 -33 -60 -37 -66 -5 -6 -26 -51 -47 -101 -110 -260 -126
-414 -64 -614 27 -90 52 -126 121 -172 68 -47 108 -51 219 -25 105 25 172 57
319 151 103 65 145 89 250 139 208 99 314 126 507 126 143 0 145 -1 184 -59
14 -23 24 -25 125 -31 100 -5 113 -8 164 -39 268 -162 409 -410 410 -721 0
-76 -6 -126 -21 -180 -22 -81 -89 -228 -115 -255 -9 -9 -14 -18 -11 -21 8 -8
65 79 97 149 91 194 92 451 3 664 l-30 71 66 6 c306 28 789 37 1134 22 229
-10 219 -2 161 -119 -64 -127 -164 -257 -266 -344 -150 -128 -206 -167 -327
-227 -130 -66 -235 -96 -330 -96 -124 0 -171 52 -122 136 20 34 20 34 1 24
-11 -6 -31 -27 -45 -48 -33 -48 -35 -131 -4 -182 81 -135 176 -164 658 -198
l105 -7 -75 -29 c-126 -48 -333 -151 -412 -205 -204 -137 -326 -302 -364 -491
-46 -229 6 -485 125 -612 43 -46 79 -68 51 -30 -7 9 -1 6 15 -8 l28 -25 16 25
c34 55 140 147 209 183 178 93 441 154 718 167 345 17 608 55 923 135 477 120
1033 360 1319 571 470 345 832 760 952 1091 50 135 88 384 76 493 -12 113 -37
247 -57 304 -41 124 -77 168 -478 576 -267 272 -402 474 -493 737 l-35 100 37
194 c21 107 45 231 54 276 9 48 33 122 60 180 75 164 258 633 263 671 l5 37
-16 -30 c-8 -16 -48 -118 -89 -226 -77 -202 -199 -508 -216 -540 -6 -9 -13
-35 -16 -56 -7 -46 -45 -235 -73 -360 -11 -51 -52 -200 -91 -330 -39 -131 -73
-246 -76 -255 -3 -10 -11 -18 -18 -18 -14 0 -272 97 -397 149 -120 50 -115 42
-91 147 74 317 101 690 67 904 -9 52 -40 169 -71 259 -30 90 -53 166 -51 168
3 2 44 -4 93 -13 125 -22 358 -30 448 -14 80 14 218 60 286 96 63 32 40 30
-90 -11 -61 -19 -141 -40 -178 -46 -132 -23 -475 -10 -557 21 -14 5 -34 42
-65 121 -98 250 -265 545 -416 736 l-73 92 37 -5 c427 -57 809 -192 1190 -422
103 -61 284 -192 402 -289 l45 -37 -45 48 c-59 62 -238 198 -370 281 -185 115
-442 238 -655 311 -44 15 -85 32 -92 38 -7 6 -33 65 -58 131 -111 289 -156
392 -255 590 -157 312 -339 591 -437 672 -30 24 -75 49 -105 58 -48 14 -168
18 -228 8z m176 -14 c135 -25 199 -88 378 -372 108 -174 271 -498 263 -527 -3
-11 -1 -23 4 -26 5 -3 9 -10 9 -15 0 -6 -4 -8 -9 -5 -4 3 -11 -74 -14 -172 -6
-178 -18 -252 -40 -252 -7 1 -48 7 -92 15 -44 8 -91 15 -105 15 -18 0 -43 17
-80 55 -30 31 -88 84 -127 118 -50 42 -77 73 -84 97 -26 79 -166 396 -244 551
-71 141 -157 288 -197 336 -19 23 -28 2 -14 -32 8 -18 12 -35 10 -38 -3 -2 2
-22 10 -43 8 -22 24 -73 35 -114 10 -41 26 -95 34 -120 8 -25 24 -76 35 -115
12 -38 32 -109 47 -157 25 -87 117 -456 137 -552 23 -114 37 -175 57 -251 12
-44 33 -132 46 -195 14 -63 29 -135 35 -160 54 -244 119 -702 120 -845 0 -48
9 -120 63 -510 79 -570 98 -810 99 -1265 1 -532 -28 -861 -91 -1043 -40 -116
-107 -244 -151 -287 -3 -3 -39 -45 -80 -95 -94 -114 -147 -164 -202 -192 -96
-49 -183 -84 -256 -104 -42 -12 -84 -25 -94 -30 -9 -4 -40 -11 -70 -15 -29 -3
-78 -12 -108 -19 -30 -7 -102 -19 -160 -25 -57 -6 -112 -16 -121 -21 -10 -5
-32 -7 -51 -4 -27 4 -28 3 -8 -3 28 -9 -125 -24 -260 -25 -85 -1 -176 26 -251
74 -52 33 -89 96 -89 154 0 37 0 37 18 16 30 -38 116 -59 200 -50 132 14 201
40 378 139 104 59 117 69 218 159 69 62 220 233 240 271 139 267 172 359 188
525 14 153 4 426 -26 635 -13 96 -29 236 -35 310 -6 74 -18 219 -26 321 -8
102 -15 230 -15 285 0 56 -3 104 -7 108 -4 4 -8 37 -9 74 -3 127 -14 287 -23
347 -10 57 -28 250 -51 525 -22 257 -95 602 -183 855 -48 138 -169 371 -264
509 -37 54 -40 52 -18 -14 30 -94 128 -428 146 -500 10 -41 26 -115 34 -165 9
-49 22 -117 30 -150 8 -33 21 -109 30 -170 9 -60 21 -132 26 -160 5 -27 16
-115 24 -195 11 -120 49 -421 70 -570 12 -81 33 -302 50 -515 14 -182 23 -511
14 -520 -7 -6 -214 80 -275 115 -76 43 -211 140 -318 229 -95 79 -248 222
-243 227 6 7 425 -103 537 -141 125 -43 102 -27 -55 36 -175 71 -266 99 -425
130 l-115 22 -80 83 c-99 104 -158 170 -267 299 -167 199 -337 443 -323 466 4
5 1 9 -5 9 -6 0 -8 6 -4 13 4 6 3 8 -1 4 -10 -9 -11 -11 -32 -142 -21 -129
-24 -706 -5 -905 19 -197 48 -386 77 -502 26 -102 73 -218 100 -248 27 -30
-328 99 -416 150 -146 87 -311 229 -375 323 -16 23 -39 53 -50 65 -29 32 -146
261 -177 347 -104 282 -157 585 -156 878 0 89 4 185 9 212 16 100 3 80 -139
-196 -176 -342 -258 -558 -323 -848 l-33 -144 -97 -33 c-54 -19 -114 -43 -133
-54 -20 -11 -63 -34 -96 -51 -34 -17 -59 -33 -56 -35 3 -3 23 4 46 15 22 12
106 43 187 71 l146 50 -6 -28 c-12 -54 -19 -387 -8 -452 13 -85 63 -212 112
-289 42 -64 48 -80 28 -64 -19 15 -225 105 -373 164 -71 28 -162 64 -201 79
-100 40 -268 126 -334 170 -130 88 -217 212 -241 345 -16 88 -5 339 20 455
113 515 378 1010 765 1430 384 416 676 667 925 794 378 192 860 345 1297 410
104 15 121 21 439 161 72 31 144 63 160 70 69 30 373 142 543 200 101 35 185
65 188 67 2 3 -42 -5 -98 -18 -97 -21 -342 -100 -490 -157 -38 -14 -68 -24
-68 -22 0 8 118 93 185 132 222 132 481 220 760 256 17 2 33 5 36 6 3 0 32 -4
65 -10z m269 -1291 c94 -101 129 -140 160 -183 17 -22 33 -42 36 -45 6 -5 153
-225 182 -272 9 -15 17 -39 17 -53 0 -17 4 -24 12 -19 7 5 8 3 3 -6 -4 -6 -7
-87 -6 -179 2 -191 -11 -373 -35 -481 -27 -122 -84 -324 -93 -333 -5 -5 -12 8
-15 30 -4 21 -36 169 -71 328 -35 160 -75 349 -90 420 -44 217 -81 367 -181
745 -14 52 -32 112 -39 132 l-13 38 37 -29 c20 -16 63 -58 96 -93z m-1198 -90
c-3 -8 -6 -5 -6 6 -1 11 2 17 5 13 3 -3 4 -12 1 -19z m1616 -513 c-3 -9 -8
-14 -10 -11 -3 3 -2 9 2 15 9 16 15 13 8 -4z m-3928 -848 c1 -257 16 -378 76
-615 59 -233 124 -387 239 -562 115 -174 310 -350 472 -425 85 -38 453 -159
518 -170 l45 -7 -41 27 c-138 92 -217 400 -254 995 -16 255 -9 770 9 770 4 0
22 -30 40 -67 66 -136 272 -412 454 -613 48 -52 87 -97 87 -101 0 -3 -26 -2
-57 2 -32 4 -119 7 -193 7 l-135 -1 105 -8 c58 -5 154 -15 213 -24 l108 -15
117 -109 c287 -268 542 -428 839 -523 l132 -43 5 -40 c64 -498 81 -712 66
-855 -10 -104 -50 -274 -68 -292 -7 -7 -69 -5 -174 3 -251 19 -678 15 -972
-10 -138 -12 -259 -24 -271 -27 -16 -4 -24 1 -33 20 -24 53 -169 191 -242 231
-42 23 -66 41 -59 46 20 12 -28 21 -149 28 -105 7 -117 10 -131 30 -29 41 -83
96 -77 79 5 -17 -5 -18 -125 -18 -145 0 -234 -15 -367 -61 -105 -37 -271 -119
-370 -182 -40 -26 -82 -47 -95 -47 -34 0 -118 53 -164 103 -50 54 -102 154
-135 257 -21 68 -23 93 -23 277 0 111 3 204 7 208 16 16 315 -116 346 -153 23
-27 23 -27 14 -2 -6 14 -35 67 -66 117 -102 168 -121 247 -121 503 0 193 10
304 29 323 7 6 64 24 127 40 63 15 150 36 194 47 l80 20 -65 -6 c-36 -3 -125
-18 -199 -34 -74 -17 -136 -29 -137 -27 -6 6 57 271 91 382 44 147 127 354
215 540 36 77 72 155 79 173 8 17 14 32 15 32 0 0 1 -100 1 -223z m4234 -1209
c21 -24 63 -72 92 -108 30 -36 56 -67 59 -70 3 -3 31 -36 61 -75 176 -222 263
-422 334 -762 l28 -131 -22 -29 c-12 -15 -51 -73 -88 -128 -105 -160 -219
-288 -408 -460 -37 -34 51 33 123 93 82 69 261 278 316 370 28 45 53 82 56 82
13 0 166 -92 215 -129 67 -51 137 -142 177 -229 24 -53 32 -85 36 -154 4 -80
3 -92 -23 -143 -33 -69 -86 -107 -230 -166 -272 -111 -586 -192 -925 -239
-101 -14 -423 -38 -430 -32 -3 2 9 13 25 24 50 35 151 145 195 213 37 57 86
166 126 284 17 49 47 203 65 331 12 82 8 515 -7 730 -5 82 -5 84 10 55 9 -17
26 -41 39 -55 20 -23 141 -123 211 -175 37 -27 48 -104 49 -325 0 -159 -17
-331 -48 -470 -3 -14 8 12 24 57 38 106 54 231 54 423 -1 279 -80 659 -198
946 l-33 80 36 117 c20 64 38 117 39 117 2 0 20 -19 42 -42z m822 -41 c-10 -9
-11 -8 -5 6 3 10 9 15 12 12 3 -3 0 -11 -7 -18z m513 -555 c2 -4 -4 -8 -14 -8
-10 0 -16 4 -14 8 3 4 9 8 14 8 5 0 11 -4 14 -8z m367 -582 c23 -139 21 -209
-12 -388 -19 -107 -61 -217 -85 -226 -8 -3 -14 -12 -14 -20 0 -7 -7 -16 -15
-19 -8 -4 -23 -23 -34 -45 -11 -21 -33 -53 -49 -70 -17 -18 -28 -32 -26 -32 3
0 -11 -14 -31 -31 -19 -17 -33 -35 -30 -39 3 -4 -5 -19 -16 -31 l-21 -24 16
28 c9 15 13 27 8 27 -4 0 -15 -12 -25 -27 -24 -41 -61 -79 -162 -168 -209
-185 -296 -248 -475 -342 -63 -33 -137 -74 -165 -90 -56 -32 -237 -113 -254
-113 -6 0 -19 -4 -29 -9 -9 -5 -46 -21 -82 -37 -36 -15 -103 -46 -150 -69 -76
-37 -136 -58 -205 -71 -56 -10 -161 -38 -170 -44 -9 -6 -91 -24 -335 -71 -58
-11 -148 -31 -200 -45 -52 -13 -160 -35 -240 -49 -141 -23 -359 -61 -410 -71
-14 -3 -88 -13 -165 -24 -235 -32 -339 -61 -515 -148 -98 -49 -125 -67 -190
-133 -77 -79 -126 -160 -137 -225 -3 -19 -10 -34 -14 -34 -5 0 -9 -16 -9 -37
0 -34 -1 -35 -18 -20 -34 31 -92 155 -118 253 -28 104 -28 168 -2 309 34 181
169 369 358 496 145 98 414 217 595 264 39 10 77 22 86 26 32 16 429 98 614
127 210 34 330 47 540 62 556 40 1051 166 1435 366 218 114 525 430 640 662
46 92 72 204 66 287 l-5 70 15 -50 c8 -27 23 -106 35 -175z m-98 5 c-8 -39
-19 -74 -24 -79 -4 -5 -2 15 6 45 7 30 16 67 19 83 4 15 9 27 11 24 2 -2 -3
-35 -12 -73z m-1836 3 c-3 -7 -5 -2 -5 12 0 14 2 19 5 13 2 -7 2 -19 0 -25z
m0 -130 c-2 -13 -4 -3 -4 22 0 25 2 35 4 23 2 -13 2 -33 0 -45z m-10 -180 c-3
-7 -5 -2 -5 12 0 14 2 19 5 13 2 -7 2 -19 0 -25z m-4650 -24 c-3 -3 -12 -4
-19 -1 -8 3 -5 6 6 6 11 1 17 -2 13 -5z m1316 -241 c-7 -2 -19 -2 -25 0 -7 3
-2 5 12 5 14 0 19 -2 13 -5z m82 -13 c3 -5 1 -10 -4 -10 -6 0 -11 5 -11 10 0
6 2 10 4 10 3 0 8 -4 11 -10z m-56 -4 c-2 -2 -17 -6 -34 -10 -22 -5 -26 -4
-15 4 14 9 59 15 49 6z m-86 -33 c-7 -2 -19 -2 -25 0 -7 3 -2 5 12 5 14 0 19
-2 13 -5z m3187 -293 c-6 -11 -13 -20 -16 -20 -2 0 0 9 6 20 6 11 13 20 16 20
2 0 0 -9 -6 -20z m-30 -53 c0 -2 -10 -12 -22 -23 l-23 -19 19 23 c18 21 26 27
26 19z m-1357 -334 c-7 -2 -21 -2 -30 0 -10 3 -4 5 12 5 17 0 24 -2 18 -5z
m180 0 c-7 -2 -19 -2 -25 0 -7 3 -2 5 12 5 14 0 19 -2 13 -5z m-88 -13 c-3 -5
-25 -9 -48 -8 l-42 1 45 7 c25 4 46 8 48 8 2 1 0 -2 -3 -8z m-245 -17 c2 -2
-35 -3 -83 -2 -47 1 -84 5 -82 10 5 7 155 0 165 -8z m113 10 c-7 -2 -19 -2
-25 0 -7 3 -2 5 12 5 14 0 19 -2 13 -5z m85 -20 c-15 -2 -42 -2 -60 0 -18 2
-6 4 27 4 33 0 48 -2 33 -4z m1589 -759 c-3 -3 -12 -4 -19 -1 -8 3 -5 6 6 6
11 1 17 -2 13 -5z m-337 -114 c-8 -6 -24 -9 -35 -9 l-20 1 20 5 c11 3 24 9 29
14 5 5 12 6 15 3 3 -3 -1 -9 -9 -14z m-183 -46 c-3 -3 -12 -4 -19 -1 -8 3 -5
6 6 6 11 1 17 -2 13 -5z m-50 -10 c-3 -3 -12 -4 -19 -1 -8 3 -5 6 6 6 11 1 17
-2 13 -5z m-40 -10 c-3 -3 -12 -4 -19 -1 -8 3 -5 6 6 6 11 1 17 -2 13 -5z
m-774 -91 c-7 -2 -21 -2 -30 0 -10 3 -4 5 12 5 17 0 24 -2 18 -5z m-909 -359
c3 -8 2 -12 -4 -9 -6 3 -10 10 -10 16 0 14 7 11 14 -7z"/>
<path d="M4690 4881 c-42 -6 -19 -8 95 -10 139 -2 259 -9 410 -27 97 -11 57 5
-51 21 -118 17 -377 26 -454 16z"/>
<path d="M3295 4809 c-49 -10 -128 -30 -175 -44 -90 -25 -182 -59 -140 -50 39
8 392 94 425 104 59 17 -15 11 -110 -10z"/>
<path d="M4660 4821 l-35 -7 36 -7 c33 -7 107 -72 95 -85 -3 -2 -29 -10 -58
-18 -29 -7 -45 -13 -36 -13 10 -1 89 -10 175 -21 156 -19 454 -42 461 -35 2 2
-13 7 -34 10 -22 4 -50 12 -63 18 l-24 12 28 5 28 5 -26 20 c-19 14 -23 21
-14 27 9 6 8 8 -3 8 -13 0 -13 1 0 10 8 5 44 10 79 10 84 0 70 16 -27 30 -234
33 -496 47 -582 31z m415 -53 c28 -15 24 -16 -102 -15 -72 1 -134 5 -138 9 -4
4 -4 12 0 19 11 17 201 7 240 -13z m-142 -35 c-18 -2 -48 -2 -65 0 -18 2 -4 4
32 4 36 0 50 -2 33 -4z m157 -13 c11 -7 5 -8 -20 -4 -43 8 -51 14 -19 14 13 0
31 -5 39 -10z"/>
<path d="M3330 4750 c-107 -20 -236 -52 -295 -74 l-40 -15 45 0 c32 -1 41 -4
30 -11 -15 -10 -17 -9 30 -23 10 -3 4 -10 -19 -19 -22 -10 -29 -18 -21 -23 9
-6 9 -9 -1 -16 -45 -28 163 14 349 71 77 24 92 35 39 28 -24 -2 -39 2 -55 19
-19 19 -20 23 -6 23 10 0 14 5 11 14 -4 10 7 20 31 30 48 20 21 19 -98 -4z
m-50 -54 c-19 -7 -62 -13 -95 -13 l-60 -1 59 9 c32 5 61 11 64 14 3 3 19 5 36
4 l31 0 -35 -13z m-10 -43 c-8 -3 -33 -14 -54 -25 -27 -13 -42 -16 -49 -9 -8
8 -5 11 9 12 19 0 19 1 -1 10 -18 8 -17 9 5 5 14 -2 34 0 45 4 11 5 29 9 40 9
14 -1 15 -2 5 -6z m-123 -19 c-3 -3 -12 -4 -19 -1 -8 3 -5 6 6 6 11 1 17 -2
13 -5z"/>
<path d="M1358 8063 c29 -2 74 -2 100 0 26 2 2 3 -53 3 -55 0 -76 -1 -47 -3z"/>
<path d="M1235 8050 c-14 -7 -8 -8 20 -3 22 3 42 7 44 9 9 8 -45 2 -64 -6z"/>
<path d="M1525 8050 c27 -12 43 -12 25 0 -8 5 -22 9 -30 9 -10 0 -8 -3 5 -9z"/>
<path d="M1600 8026 c0 -3 9 -10 20 -16 11 -6 20 -8 20 -6 0 3 -9 10 -20 16
-11 6 -20 8 -20 6z"/>
<path d="M1691 7955 c21 -23 49 -61 64 -84 15 -22 30 -41 32 -41 11 0 -37 67
-82 114 -27 29 -34 34 -14 11z"/>
<path d="M1028 7943 c-60 -64 -126 -161 -148 -221 -13 -33 -24 -91 -27 -137
-14 -220 92 -411 267 -483 41 -17 89 -33 105 -36 17 -4 8 2 -20 13 -122 45
-181 79 -219 122 -113 132 -153 336 -99 504 19 60 87 168 144 230 50 54 48 60
-3 8z"/>
<path d="M1809 7777 c6 -16 16 -37 21 -47 6 -10 17 -43 24 -72 8 -29 15 -43
15 -30 1 25 -45 150 -61 167 -5 6 -4 -3 1 -18z"/>
<path d="M1872 7555 c0 -16 2 -22 5 -12 2 9 2 23 0 30 -3 6 -5 -1 -5 -18z"/>
<path d="M1806 7325 c-9 -26 -7 -32 5 -12 6 10 9 21 6 23 -2 3 -7 -2 -11 -11z"/>
<path d="M1780 7270 c-6 -11 -8 -20 -6 -20 3 0 10 9 16 20 6 11 8 20 6 20 -3
0 -10 -9 -16 -20z"/>
<path d="M1724 7188 l-19 -23 23 19 c21 18 27 26 19 26 -2 0 -12 -10 -23 -22z"/>
<path d="M1670 7149 c-22 -18 -22 -19 -3 -10 12 6 25 16 28 21 9 15 3 12 -25
-11z"/>
<path d="M1620 7120 c-9 -6 -10 -10 -3 -10 6 0 15 5 18 10 8 12 4 12 -15 0z"/>
<path d="M1475 7050 c-13 -6 -15 -9 -5 -9 8 0 22 4 30 9 18 12 2 12 -25 0z"/>
<path d="M1318 7043 c12 -2 30 -2 40 0 9 3 -1 5 -23 4 -22 0 -30 -2 -17 -4z"/>
<path d="M1403 7033 c9 -2 23 -2 30 0 6 3 -1 5 -18 5 -16 0 -22 -2 -12 -5z"/>
<path d="M1726 6703 c-6 -14 -5 -15 5 -6 7 7 10 15 7 18 -3 3 -9 -2 -12 -12z"/>
</g>
</svg>
